<?xml version="1.0" standalone="no"?>
<!DOCTYPE svg PUBLIC "-//W3C//DTD SVG 20010904//EN" "http://www.w3.org/TR/2001/REC-SVG-20010904/DTD/svg10.dtd">
<svg version="1.0" xmlns="http://www.w3.org/2000/svg" width="140.000000pt" height="140.000000pt" viewBox="0 0 192.000000 192.000000" preserveAspectRatio="xMidYMid meet">
	<g transform="translate(0.000000,192.000000) scale(0.100000,-0.100000)" fill="rgb(0,76,176)" stroke="none">
		<path d="M0 960 l0 -960 960 0 960 0 0 960 0 960 -960 0 -960 0 0 -960z m1429
474 c72 -21 134 -83 155 -155 20 -66 21 -109 2 -109 -7 0 -28 -3 -45 -6 -30
-6 -31 -6 -31 32 0 57 -33 117 -81 143 -56 32 -168 28 -218 -8 -58 -42 -61
-60 -61 -371 0 -309 3 -325 59 -373 30 -25 40 -27 114 -27 65 0 89 4 115 20
39 24 71 89 72 143 0 36 1 37 28 31 67 -15 65 -12 58 -66 -13 -95 -73 -174
-155 -203 -24 -8 -74 -15 -111 -15 -120 0 -200 43 -244 132 l-26 52 0 295 c0
253 2 303 17 343 45 125 200 188 352 142z m-1017 -216 l3 -213 178 -3 177 -2
0 215 0 215 45 0 45 0 0 -476 0 -475 -42 3 -43 3 -3 213 -2 212 -180 0 -180 0
0 -215 0 -215 -40 0 -40 0 0 475 0 475 40 0 40 0 2 -212z" />
	</g>
</svg>
